<svg id="Layer_1" enable-background="new 0 0 512.009 512.009" height="512" viewBox="0 0 512.009 512.009" width="512" xmlns="http://www.w3.org/2000/svg"><g><g><path d="m178.451 512.009v-30c34.492 0 62.553-28.062 62.553-62.554v-104.495h30v104.496c.001 51.034-41.519 92.553-92.553 92.553z" fill="#a5e887"/></g><path d="m271.005 314.96h-15v154.951c9.481-14.523 15-31.855 15-50.455z" fill="#00cc76"/><path d="m239.78 18.623c-.532-.545-1.076-1.085-1.626-1.609-11.452-10.93-26.558-16.949-42.535-16.949-15.651 0-30.525 5.811-41.885 16.363-12.396 11.513-19.394 27.153-19.704 44.035-.047 2.536.058 5.048.31 7.528-2.135-.217-4.294-.327-6.468-.327-16.018 0-31.125 6.078-42.536 17.113-11.979 11.586-18.652 27.136-18.791 43.787-.139 16.653 6.269 32.309 18.044 44.083.529.529 1.066 1.046 1.605 1.548 10.575 9.844 24.635 15.265 39.591 15.265h130.22l.009-130.197c.002-15.45-5.761-29.881-16.234-40.64z" fill="#00cc76"/><path d="m85.165 205.687c-.545.532-1.085 1.076-1.609 1.626-10.93 11.452-16.949 26.558-16.949 42.535 0 15.651 5.811 30.525 16.363 41.885 11.513 12.396 27.153 19.394 44.035 19.704 2.536.047 5.048-.058 7.528-.31-.217 2.135-.327 4.294-.327 6.468 0 16.018 6.078 31.125 17.113 42.536 11.586 11.979 27.136 18.652 43.787 18.791 16.653.139 32.309-6.269 44.083-18.044.529-.529 1.046-1.066 1.548-1.605 9.844-10.575 15.265-24.635 15.265-39.591v-130.22l-130.197-.009c-15.45-.001-29.88 5.761-40.64 16.234z" fill="#00aa95"/><path d="m272.229 360.302c.532.545 1.076 1.085 1.626 1.609 11.452 10.93 26.558 16.949 42.535 16.949 15.651 0 30.525-5.811 41.885-16.363 12.396-11.513 19.394-27.153 19.704-44.035.047-2.536-.058-5.048-.31-7.528 2.135.217 4.294.327 6.468.327 16.018 0 31.125-6.078 42.536-17.113 11.979-11.586 18.652-27.136 18.791-43.787.139-16.653-6.269-32.309-18.044-44.083-.529-.529-1.066-1.046-1.605-1.548-10.575-9.844-24.635-15.265-39.591-15.265h-130.22l-.009 130.197c-.001 15.451 5.761 29.881 16.234 40.64z" fill="#00aa95"/><path d="m426.844 173.238c.545-.532 1.085-1.076 1.609-1.626 10.93-11.452 16.949-26.558 16.949-42.535 0-15.651-5.811-30.526-16.363-41.885-11.513-12.396-27.153-19.394-44.035-19.704-2.536-.047-5.048.058-7.528.31.217-2.135.327-4.294.327-6.468 0-16.018-6.078-31.125-17.113-42.536-11.587-11.98-27.137-18.653-43.788-18.792-16.653-.139-32.309 6.269-44.083 18.044-.529.529-1.046 1.066-1.548 1.605-9.844 10.575-15.265 24.635-15.265 39.591v130.22l130.197.009c15.452.002 29.882-5.76 40.641-16.233z" fill="#00cc76"/><path d="m272.229 360.302c.532.545 1.076 1.085 1.626 1.609 11.452 10.93 26.558 16.949 42.535 16.949 15.651 0 30.525-5.811 41.885-16.363 12.396-11.513 19.394-27.153 19.704-44.035.047-2.536-.058-5.048-.31-7.528 2.135.217 4.294.327 6.468.327 16.018 0 31.125-6.078 42.536-17.113 11.979-11.586 18.652-27.136 18.791-43.787.139-16.653-6.269-32.309-18.044-44.083-.529-.529-1.066-1.046-1.605-1.548-10.575-9.844-24.635-15.265-39.591-15.265h-130.22l-.009 130.197c-.001 15.451 5.761 29.881 16.234 40.64z" fill="#008285"/><path d="m426.844 173.238c.545-.532 1.085-1.076 1.609-1.626 10.93-11.452 16.949-26.558 16.949-42.535 0-15.651-5.811-30.526-16.363-41.885-11.513-12.396-27.153-19.394-44.035-19.704-2.536-.047-5.048.058-7.528.31.217-2.135.327-4.294.327-6.468 0-16.018-6.078-31.125-17.113-42.536-11.587-11.98-27.137-18.653-43.788-18.792-16.653-.139-32.309 6.269-44.083 18.044-.529.529-1.046 1.066-1.548 1.605-9.844 10.575-15.265 24.635-15.265 39.591v130.22l130.197.009c15.452.002 29.882-5.76 40.641-16.233z" fill="#00aa95"/></g></svg>